<svg width="411" height="390" xmlns="http://www.w3.org/2000/svg" xmlns:xlink="http://www.w3.org/1999/xlink" xml:space="preserve" overflow="hidden"><defs><clipPath id="clip0"><rect x="2256" y="821" width="411" height="390"/></clipPath></defs><g clip-path="url(#clip0)" transform="translate(-2256 -821)"><path d="M2329.24 923.5 2593.76 923.5C2628.41 923.5 2656.5 974.092 2656.5 1036.5 2656.5 1098.91 2628.41 1149.5 2593.76 1149.5L2329.24 1149.5C2294.59 1149.5 2266.5 1098.91 2266.5 1036.5 2266.5 974.092 2294.59 923.5 2329.24 923.5Z" stroke="#042433" stroke-width="20.625" stroke-miterlimit="8" fill="#FFFFFF" fill-rule="evenodd"/><path d="M2328 1040.5C2328 1021.45 2343.45 1006 2362.5 1006 2381.55 1006 2397 1021.45 2397 1040.5 2397 1059.55 2381.55 1075 2362.5 1075 2343.45 1075 2328 1059.55 2328 1040.5Z" fill-rule="evenodd"/><path d="M2522 1041C2522 1021.67 2537.45 1006 2556.5 1006 2575.55 1006 2591 1021.67 2591 1041 2591 1060.33 2575.55 1076 2556.5 1076 2537.45 1076 2522 1060.33 2522 1041Z" fill-rule="evenodd"/><path d="M2493.54 1053.87C2496.65 1072.67 2483.92 1090.43 2465.13 1093.54 2446.33 1096.65 2428.57 1083.92 2425.46 1065.13 2424.84 1061.37 2424.85 1057.53 2425.48 1053.77Z" fill-rule="evenodd"/><path d="M2418 862.5C2418 839.58 2436.58 821 2459.5 821 2482.42 821 2501 839.58 2501 862.5 2501 885.42 2482.42 904 2459.5 904 2436.58 904 2418 885.42 2418 862.5Z" fill="#D1D1D1" fill-rule="evenodd"/><path d="M2460.5 864.5 2460.5 919.877" stroke="#042433" stroke-width="20.625" stroke-miterlimit="8" fill="#FFFFFF" fill-rule="evenodd"/><path d="M2439 865.5C2439 854.178 2448.18 845 2459.5 845 2470.82 845 2480 854.178 2480 865.5 2480 876.822 2470.82 886 2459.5 886 2448.18 886 2439 876.822 2439 865.5Z" fill-rule="evenodd"/><path d="M0 69.0001 0 0 69.0001 69.0001Z" fill-rule="evenodd" transform="matrix(1 0 0 -1 2356 1211)"/></g></svg>