<svg id="eovZ3xaYeGP1"
    xmlns="http://www.w3.org/2000/svg"
    xmlns:xlink="http://www.w3.org/1999/xlink" viewBox="0 0 32 32" shape-rendering="geometricPrecision" text-rendering="geometricPrecision" project-id="484174f06a324f7ab0bb493061b265ac" export-id="6b274d2895e94376902809dba20cefb9" cached="false" width="32" height="32">
    <g transform="matrix(.32-.000119 0.000119 0.32-682.055451-373.500286)">
        <path d="M2150.14,1196.5h61.72c8.09,0,14.64,11.86,14.64,26.5s-6.55,26.5-14.64,26.5h-61.72c-8.09,0-14.64-11.86-14.64-26.5s6.55-26.5,14.64-26.5Z" fill="white" fill-rule="evenodd" stroke="black" stroke-width="6.875" stroke-miterlimit="8"/>
        <path d="M2150,1224c0-4.42,3.58-8,8-8s8,3.58,8,8-3.58,8-8,8-8-3.58-8-8Z" fill-rule="evenodd"/>
        <path d="M2195,1224c0-4.42,3.58-8,8-8s8,3.58,8,8-3.58,8-8,8-8-3.58-8-8Z" fill-rule="evenodd"/>
        <path d="M2187.89,1223.7c.72,4.35-2.23,8.47-6.59,9.19-4.35.72-8.47-2.23-9.19-6.59-.15-.87-.15-1.76,0-2.63l15.78.03Z" fill-rule="evenodd"/>
        <path d="M2171,1182.5c0-5.25,4.25-9.5,9.5-9.5s9.5,4.25,9.5,9.5-4.25,9.5-9.5,9.5-9.5-4.25-9.5-9.5Z" fill="#d1d1d1" fill-rule="evenodd"/>
        <path d="M2180.5,1183.5v12.92" fill="white" fill-rule="evenodd" stroke="black" stroke-width="6.875" stroke-miterlimit="8"/>
        <path d="M2175,1183c0-2.76,2.24-5,5-5s5,2.24,5,5-2.24,5-5,5-5-2.24-5-5Z" fill-rule="evenodd"/>
        <path d="M0,15.9998L0,0L16.0002,15.9998h-16.0002Z" transform="matrix(1 0 0-1 2156 1263)" fill-rule="evenodd"/>
    </g>
</svg>
